<svg width="1024" height="1024" viewBox="0 0 1024 1024" fill="none" xmlns="http://www.w3.org/2000/svg">
<path d="M62.8091 173.54H128V203.587C118.048 202.86 121.505 216.947 117.176 225.002C114.499 229.982 105.183 227.881 98.3751 225.002C83.1889 218.577 62.8091 173.54 62.8091 173.54Z" fill="#54565C"/>
<path d="M193.191 173.54H128V203.587C137.952 202.86 134.495 216.947 138.824 225.002C141.501 229.982 150.817 227.881 157.625 225.002C172.811 218.577 193.191 173.54 193.191 173.54Z" fill="#54565C"/>
<path d="M226.606 110.629C224.644 85.7465 177.548 74.0094 128 74.0094V197.014C157.925 196.545 184.366 189.972 193.247 178.235C202.128 166.498 199.134 157.577 206.983 145.371C214.832 133.164 228.44 125.493 226.606 110.629Z" fill="#4E6093"/>
<path d="M29.3943 110.629C31.3566 85.7465 78.4519 74.0094 128 74.0094V197.014C98.0749 196.545 71.6346 189.972 62.7535 178.235C53.8724 166.498 56.8666 157.577 49.0173 145.371C41.1681 133.164 27.5596 125.493 29.3943 110.629Z" fill="#4E6093"/>
<path d="M29.226 112.507C29.226 112.507 52.3012 130.743 52.3012 152.719C58.2105 165.343 61.6575 179.838 73.4759 189.19C85.2944 198.541 88.2501 211.561 79.3851 219.114C70.5202 226.668 49.0283 201.428 38.0207 183.579C23.1582 159.478 29.226 112.507 29.226 112.507Z" fill="#FFCBA9"/>
<path d="M226.774 112.507C226.774 112.507 203.699 130.743 203.699 152.719C197.79 165.343 194.343 179.838 182.524 189.19C170.706 198.541 167.75 211.561 176.615 219.114C185.48 226.668 206.972 201.428 217.979 183.579C232.842 159.478 226.774 112.507 226.774 112.507Z" fill="#FFCBA9"/>
<rect x="50.718" y="88.0939" width="22.718" height="32.8638" rx="10" fill="#E6B798"/>
<rect x="182.087" y="88.0939" width="22.718" height="32.8638" rx="10" fill="#E6B798"/>
<mask id="mask0_10_1204" style="mask-type:alpha" maskUnits="userSpaceOnUse" x="59" y="28" width="135" height="129">
<rect x="59.6077" y="28" width="134.333" height="128.639" rx="49" fill="#FFCBA9"/>
</mask>
<g mask="url(#mask0_10_1204)">
<rect x="59.3695" y="28" width="134.333" height="128.639" rx="49" fill="#FFCBA9"/>
<path d="M59.3696 26.8545C59.3696 20.227 64.7422 14.8545 71.3696 14.8545H181.702C188.33 14.8545 193.702 20.227 193.702 26.8545V89.9718C179.146 65.4676 146.466 76.5743 132.534 82.792C128.464 84.6083 123.708 84.4674 119.697 82.5238C107.024 76.3822 78.1811 66.3089 59.3696 89.9718V26.8545Z" fill="#6A3D1E"/>
</g>
<rect x="84.3013" y="108.751" width="24.6935" height="23.4742" rx="10" fill="white"/>
<rect x="90.2277" y="111.568" width="13.8284" height="18.7793" rx="6.91418" fill="#535353"/>
<rect x="145.541" y="109.69" width="24.6935" height="23.4742" rx="10" fill="white"/>
<rect x="151.467" y="112.507" width="13.8284" height="18.7793" rx="6.91418" fill="#535353"/>
<path d="M177.229 107.287C177.229 108.843 166.969 104.001 157.968 104.001C148.967 104.001 141.67 105.879 141.67 101.184C140.683 95.0807 148.967 98.3671 157.968 98.3671C166.969 98.3671 177.229 105.732 177.229 107.287Z" fill="#6A3D1E"/>
<path d="M78.3748 106.348C78.3748 107.904 88.6347 103.062 97.6357 103.062C106.637 103.062 113.933 104.94 113.933 100.245C114.921 94.1418 106.637 97.4282 97.6357 97.4282C88.6347 97.4282 78.3748 104.793 78.3748 106.348Z" fill="#6A3D1E"/>
<path d="M137.639 144.122C137.639 145.849 133.217 147.249 127.762 147.249C122.307 147.249 117.884 145.849 117.884 144.122C117.884 142.395 122.307 142.558 127.762 142.558C133.217 142.558 137.639 142.395 137.639 144.122Z" fill="#535353"/>
<path d="M318.809 173.54H384V203.587C374.048 202.86 377.505 216.947 373.176 225.002C370.499 229.982 361.183 227.881 354.375 225.002C339.189 218.577 318.809 173.54 318.809 173.54Z" fill="#54565C"/>
<path d="M449.191 173.54H384V203.587C393.952 202.86 390.495 216.947 394.824 225.002C397.501 229.982 406.817 227.881 413.625 225.002C428.811 218.577 449.191 173.54 449.191 173.54Z" fill="#54565C"/>
<path d="M482.606 114.629C480.644 89.7465 433.548 78.0094 384 78.0094V201.014C413.925 200.545 440.366 193.972 449.247 182.235C458.128 170.498 455.134 161.577 462.983 149.371C470.832 137.164 484.44 129.493 482.606 114.629Z" fill="#4E6093"/>
<path d="M285.394 114.629C287.357 89.7465 334.452 78.0094 384 78.0094V201.014C354.075 200.545 327.635 193.972 318.753 182.235C309.872 170.498 312.867 161.577 305.017 149.371C297.168 137.164 283.56 129.493 285.394 114.629Z" fill="#4E6093"/>
<path d="M285.226 116.507C285.226 116.507 308.301 134.743 308.301 156.719C314.21 169.343 317.657 183.838 329.476 193.19C341.294 202.541 344.25 215.561 335.385 223.114C326.52 230.668 305.028 205.428 294.021 187.579C279.158 163.478 285.226 116.507 285.226 116.507Z" fill="#FFCBA9"/>
<path d="M482.774 116.507C482.774 116.507 459.699 134.743 459.699 156.719C453.79 169.343 450.343 183.838 438.524 193.19C426.706 202.541 423.75 215.561 432.615 223.114C441.48 230.668 462.972 205.428 473.979 187.579C488.842 163.478 482.774 116.507 482.774 116.507Z" fill="#FFCBA9"/>
<rect x="306.718" y="92.0939" width="22.718" height="32.8638" rx="10" fill="#E6B798"/>
<rect x="438.087" y="92.0939" width="22.718" height="32.8638" rx="10" fill="#E6B798"/>
<mask id="mask1_10_1204" style="mask-type:alpha" maskUnits="userSpaceOnUse" x="315" y="32" width="135" height="129">
<rect x="315.608" y="32" width="134.333" height="128.639" rx="49" fill="#FFCBA9"/>
</mask>
<g mask="url(#mask1_10_1204)">
<rect x="315.37" y="32" width="134.333" height="128.639" rx="49" fill="#FFCBA9"/>
<path d="M315.37 30.8545C315.37 24.227 320.742 18.8545 327.37 18.8545H437.702C444.33 18.8545 449.702 24.227 449.702 30.8545V93.9718C435.146 69.4676 402.466 80.5743 388.534 86.792C384.464 88.6083 379.708 88.4674 375.697 86.5238C363.024 80.3822 334.181 70.3089 315.37 93.9718V30.8545Z" fill="#6A3D1E"/>
</g>
<rect x="340.301" y="112.751" width="24.6935" height="23.4742" rx="10" fill="white"/>
<rect x="346.228" y="115.568" width="13.8284" height="18.7793" rx="6.91418" fill="#535353"/>
<rect x="401.541" y="113.69" width="24.6935" height="23.4742" rx="10" fill="white"/>
<rect x="407.467" y="116.507" width="13.8284" height="18.7793" rx="6.91418" fill="#535353"/>
<path d="M433.229 111.287C433.229 112.843 422.969 108.001 413.968 108.001C404.967 108.001 397.67 109.879 397.67 105.184C396.683 99.0807 404.967 102.367 413.968 102.367C422.969 102.367 433.229 109.732 433.229 111.287Z" fill="#6A3D1E"/>
<path d="M334.375 110.348C334.375 111.904 344.635 107.062 353.636 107.062C362.637 107.062 369.933 108.94 369.933 104.245C370.921 98.1418 362.637 101.428 353.636 101.428C344.635 101.428 334.375 108.793 334.375 110.348Z" fill="#6A3D1E"/>
<path d="M393.639 148.122C393.639 149.849 389.217 151.249 383.762 151.249C378.307 151.249 373.884 149.849 373.884 148.122C373.884 146.395 378.307 146.558 383.762 146.558C389.217 146.558 393.639 146.395 393.639 148.122Z" fill="#535353"/>
<path d="M830.809 173.54H896V203.587C886.048 202.86 889.505 216.947 885.176 225.002C882.499 229.982 873.183 227.881 866.375 225.002C851.189 218.577 830.809 173.54 830.809 173.54Z" fill="#54565C"/>
<path d="M961.191 173.54H896V203.587C905.952 202.86 902.495 216.947 906.824 225.002C909.501 229.982 918.817 227.881 925.625 225.002C940.811 218.577 961.191 173.54 961.191 173.54Z" fill="#54565C"/>
<path d="M994.606 114.629C992.644 89.7465 945.548 78.0094 896 78.0094V201.014C925.925 200.545 952.366 193.972 961.247 182.235C970.128 170.498 967.134 161.577 974.983 149.371C982.832 137.164 996.44 129.493 994.606 114.629Z" fill="#4E6093"/>
<path d="M797.394 114.629C799.357 89.7465 846.452 78.0094 896 78.0094V201.014C866.075 200.545 839.635 193.972 830.753 182.235C821.872 170.498 824.867 161.577 817.017 149.371C809.168 137.164 795.56 129.493 797.394 114.629Z" fill="#4E6093"/>
<path d="M797.226 116.507C797.226 116.507 820.301 134.743 820.301 156.719C826.21 169.343 829.657 183.838 841.476 193.19C853.294 202.541 856.25 215.561 847.385 223.114C838.52 230.668 817.028 205.428 806.021 187.579C791.158 163.478 797.226 116.507 797.226 116.507Z" fill="#FFCBA9"/>
<path d="M994.774 116.507C994.774 116.507 971.699 134.743 971.699 156.719C965.79 169.343 962.343 183.838 950.524 193.19C938.706 202.541 935.75 215.561 944.615 223.114C953.48 230.668 974.972 205.428 985.979 187.579C1000.84 163.478 994.774 116.507 994.774 116.507Z" fill="#FFCBA9"/>
<rect x="818.718" y="92.0939" width="22.718" height="32.8638" rx="10" fill="#E6B798"/>
<rect x="950.087" y="92.0939" width="22.718" height="32.8638" rx="10" fill="#E6B798"/>
<mask id="mask2_10_1204" style="mask-type:alpha" maskUnits="userSpaceOnUse" x="827" y="32" width="135" height="129">
<rect x="827.608" y="32" width="134.333" height="128.639" rx="49" fill="#FFCBA9"/>
</mask>
<g mask="url(#mask2_10_1204)">
<rect x="827.37" y="32" width="134.333" height="128.639" rx="49" fill="#FFCBA9"/>
<path d="M827.37 30.8545C827.37 24.227 832.742 18.8545 839.37 18.8545H949.702C956.33 18.8545 961.702 24.227 961.702 30.8545V93.9718C947.146 69.4676 914.466 80.5743 900.534 86.792C896.464 88.6083 891.708 88.4674 887.697 86.5238C875.024 80.3822 846.181 70.3089 827.37 93.9718V30.8545Z" fill="#6A3D1E"/>
</g>
<rect x="852.301" y="112.751" width="24.6935" height="23.4742" rx="10" fill="white"/>
<rect x="858.228" y="115.568" width="13.8284" height="18.7793" rx="6.91418" fill="#535353"/>
<rect x="913.541" y="113.69" width="24.6935" height="23.4742" rx="10" fill="white"/>
<rect x="919.467" y="116.507" width="13.8284" height="18.7793" rx="6.91418" fill="#535353"/>
<path d="M945.229 111.287C945.229 112.843 934.969 108.001 925.968 108.001C916.967 108.001 909.67 109.879 909.67 105.184C908.683 99.0807 916.967 102.367 925.968 102.367C934.969 102.367 945.229 109.732 945.229 111.287Z" fill="#6A3D1E"/>
<path d="M846.375 110.348C846.375 111.904 856.635 107.062 865.636 107.062C874.637 107.062 881.933 108.94 881.933 104.245C882.921 98.1418 874.637 101.428 865.636 101.428C856.635 101.428 846.375 108.793 846.375 110.348Z" fill="#6A3D1E"/>
<path d="M905.639 148.122C905.639 149.849 901.217 151.249 895.762 151.249C890.307 151.249 885.884 149.849 885.884 148.122C885.884 146.395 890.307 146.558 895.762 146.558C901.217 146.558 905.639 146.395 905.639 148.122Z" fill="#535353"/>
<path d="M64.6711 429.54H127.962V459.587C118.3 458.86 121.656 472.947 117.453 481.002C114.854 485.982 105.809 483.881 99.2004 481.002C84.4569 474.577 64.6711 429.54 64.6711 429.54Z" fill="#54565C"/>
<path d="M191.252 429.54H127.962V459.587C137.624 458.86 134.267 472.947 138.47 481.002C141.069 485.982 150.114 483.881 156.723 481.002C171.466 474.577 191.252 429.54 191.252 429.54Z" fill="#54565C"/>
<path d="M223.693 366.629C221.788 341.746 176.066 330.009 127.962 330.009V453.014C157.015 452.545 182.684 445.972 191.306 434.235C199.929 422.498 197.022 413.577 204.642 401.371C212.263 389.164 225.474 381.493 223.693 366.629Z" fill="#4E6093"/>
<path d="M32.2302 366.629C34.1353 341.746 79.8578 330.009 127.962 330.009V453.014C98.9088 452.545 73.2392 445.972 64.617 434.235C55.9947 422.498 58.9017 413.577 51.2812 401.371C43.6608 389.164 30.449 381.493 32.2302 366.629Z" fill="#4E6093"/>
<rect x="53" y="344.094" width="22.0558" height="32.8638" rx="10" fill="#E6B798"/>
<rect x="180.54" y="344.094" width="22.0558" height="32.8638" rx="10" fill="#E6B798"/>
<mask id="mask3_10_1204" style="mask-type:alpha" maskUnits="userSpaceOnUse" x="62" y="284" width="132" height="129">
<rect x="62.8207" y="284" width="130.417" height="128.639" rx="49" fill="#FFCBA9"/>
</mask>
<g mask="url(#mask3_10_1204)">
<rect x="62.5895" y="284" width="130.417" height="128.639" rx="49" fill="#FFCBA9"/>
<path d="M62.5895 282.854C62.5895 276.227 67.9621 270.854 74.5895 270.854H181.006C187.634 270.854 193.006 276.227 193.006 282.854V345.972C178.993 321.674 147.679 332.39 133.966 338.634C129.806 340.528 124.91 340.373 120.811 338.351C108.334 332.198 80.6825 322.529 62.5895 345.972V282.854Z" fill="#6A3D1E"/>
</g>
<rect x="152.003" y="355.362" width="22.0558" height="32.8638" rx="10" fill="white"/>
<rect x="152.962" y="363.812" width="13.4253" height="18.7793" rx="6.71263" fill="#535353"/>
<path d="M181.557 346.311C181.89 348.161 171.044 344.098 162.438 345.584C153.832 347.07 147.258 350.507 146.253 344.925C144.002 337.833 152.626 340.372 161.232 338.886C169.838 337.4 181.224 344.462 181.557 346.311Z" fill="#6A3D1E"/>
<rect x="81.9996" y="355.362" width="22.0558" height="32.8638" rx="10" fill="white"/>
<rect x="89.6711" y="361.934" width="13.4253" height="18.7793" rx="6.71263" fill="#535353"/>
<path d="M75.0755 346.311C74.7424 348.161 85.5886 344.098 94.1944 345.584C102.8 347.07 109.375 350.507 110.38 344.925C112.631 337.833 104.006 340.372 95.4005 338.886C86.7947 337.4 75.4086 344.462 75.0755 346.311Z" fill="#6A3D1E"/>
<mask id="mask4_10_1204" style="mask-type:alpha" maskUnits="userSpaceOnUse" x="105" y="374" width="46" height="34">
<ellipse cx="128.029" cy="391.042" rx="22.0558" ry="16.9014" fill="#2B2B2B"/>
</mask>
<g mask="url(#mask4_10_1204)">
<ellipse cx="128.029" cy="391.042" rx="22.0558" ry="16.9014" fill="#2B2B2B"/>
<path d="M105.973 370.385H150.085V382.592C132.505 377.016 122.852 377.093 105.973 382.592V370.385Z" fill="white"/>
<ellipse cx="128.029" cy="401.84" rx="14.3842" ry="6.10329" fill="#AC3939"/>
</g>
<path d="M32.2301 366.629C32.2301 366.629 54.6328 384.865 54.6328 406.841C60.3697 419.465 66.0415 439.869 75.1515 438.93C84.2615 437.991 88.5767 447.38 88.5767 447.38C88.5767 447.38 70.8363 460.995 40.7684 437.701C18.394 420.366 32.2301 366.629 32.2301 366.629Z" fill="#E7B798"/>
<path d="M60.7674 424.845C53.0288 422.498 76.3041 452.865 88.5769 447.38C96.7606 440.945 99.2796 437.08 101.37 428.848C102.8 416.212 93.7397 413.872 93.7397 413.872C87.1318 414.535 68.5061 427.192 60.7674 424.845Z" fill="#E7B798"/>
<path d="M223.625 366.629C223.625 366.629 201.471 384.865 201.471 406.841C195.734 419.465 190.062 439.869 180.952 438.93C171.842 437.991 167.527 447.38 167.527 447.38C167.527 447.38 185.267 460.995 215.335 437.701C237.71 420.366 223.625 366.629 223.625 366.629Z" fill="#E7B798"/>
<path d="M195.336 424.845C203.075 422.498 179.8 452.865 167.527 447.38C159.343 440.945 156.824 437.08 154.734 428.848C153.304 416.212 162.364 413.872 162.364 413.872C168.972 414.535 187.598 427.192 195.336 424.845Z" fill="#E7B798"/>
<path d="M320.671 424.54H383.962V454.587C374.3 453.86 377.656 467.947 373.453 476.002C370.854 480.982 361.809 478.881 355.2 476.002C340.457 469.577 320.671 424.54 320.671 424.54Z" fill="#54565C"/>
<path d="M447.252 424.54H383.962V454.587C393.624 453.86 390.267 467.947 394.47 476.002C397.069 480.982 406.114 478.881 412.723 476.002C427.466 469.577 447.252 424.54 447.252 424.54Z" fill="#54565C"/>
<path d="M479.693 361.629C477.788 336.746 432.066 325.009 383.962 325.009V448.014C413.015 447.545 438.684 440.972 447.306 429.235C455.929 417.498 453.022 408.577 460.642 396.371C468.263 384.164 481.474 376.493 479.693 361.629Z" fill="#4E6093"/>
<path d="M288.23 361.629C290.135 336.746 335.858 325.009 383.962 325.009V448.014C354.909 447.545 329.239 440.972 320.617 429.235C311.995 417.498 314.902 408.577 307.281 396.371C299.661 384.164 286.449 376.493 288.23 361.629Z" fill="#4E6093"/>
<rect x="309" y="349.094" width="22.0558" height="32.8638" rx="10" fill="#E6B798"/>
<rect x="436.54" y="349.094" width="22.0558" height="32.8638" rx="10" fill="#E6B798"/>
<mask id="mask5_10_1204" style="mask-type:alpha" maskUnits="userSpaceOnUse" x="318" y="289" width="132" height="129">
<rect x="318.821" y="289" width="130.417" height="128.639" rx="49" fill="#FFCBA9"/>
</mask>
<g mask="url(#mask5_10_1204)">
<rect x="318.589" y="289" width="130.417" height="128.639" rx="49" fill="#FFCBA9"/>
<path d="M318.589 287.854C318.589 281.227 323.962 275.854 330.589 275.854H437.006C443.634 275.854 449.006 281.227 449.006 287.854V350.972C434.993 326.674 403.679 337.39 389.966 343.634C385.806 345.528 380.91 345.373 376.811 343.351C364.334 337.198 336.683 327.529 318.589 350.972V287.854Z" fill="#6A3D1E"/>
</g>
<rect x="408.003" y="360.362" width="22.0558" height="32.8638" rx="10" fill="white"/>
<rect x="408.962" y="368.812" width="13.4253" height="18.7793" rx="6.71263" fill="#535353"/>
<path d="M437.557 351.311C437.89 353.161 427.044 349.098 418.438 350.584C409.832 352.07 403.258 355.507 402.253 349.925C400.002 342.833 408.626 345.372 417.232 343.886C425.838 342.4 437.224 349.462 437.557 351.311Z" fill="#6A3D1E"/>
<rect x="338" y="360.362" width="22.0558" height="32.8638" rx="10" fill="white"/>
<rect x="345.671" y="366.934" width="13.4253" height="18.7793" rx="6.71263" fill="#535353"/>
<path d="M331.076 351.311C330.742 353.161 341.589 349.098 350.194 350.584C358.8 352.07 365.375 355.507 366.38 349.925C368.631 342.833 360.006 345.372 351.401 343.886C342.795 342.4 331.409 349.462 331.076 351.311Z" fill="#6A3D1E"/>
<mask id="mask6_10_1204" style="mask-type:alpha" maskUnits="userSpaceOnUse" x="361" y="379" width="46" height="34">
<ellipse cx="384.029" cy="396.042" rx="22.0558" ry="16.9014" fill="#2B2B2B"/>
</mask>
<g mask="url(#mask6_10_1204)">
<ellipse cx="384.029" cy="396.042" rx="22.0558" ry="16.9014" fill="#2B2B2B"/>
<path d="M361.973 375.385H406.085V387.592C388.505 382.016 378.852 382.093 361.973 387.592V375.385Z" fill="white"/>
<ellipse cx="384.029" cy="406.84" rx="14.3842" ry="6.10329" fill="#AC3939"/>
</g>
<path d="M288.23 361.629C288.23 361.629 310.633 379.865 310.633 401.841C316.37 414.465 322.041 434.869 331.151 433.93C340.261 432.991 344.577 442.38 344.577 442.38C344.577 442.38 326.836 455.995 296.768 432.701C274.394 415.366 288.23 361.629 288.23 361.629Z" fill="#E7B798"/>
<path d="M316.767 419.845C309.029 417.498 332.304 447.865 344.577 442.38C352.761 435.945 355.28 432.08 357.37 423.848C358.8 411.212 349.74 408.872 349.74 408.872C343.132 409.535 324.506 422.192 316.767 419.845Z" fill="#E7B798"/>
<path d="M479.625 361.629C479.625 361.629 457.471 379.865 457.471 401.841C451.734 414.465 446.062 434.869 436.952 433.93C427.842 432.991 423.527 442.38 423.527 442.38C423.527 442.38 441.267 455.995 471.335 432.701C493.71 415.366 479.625 361.629 479.625 361.629Z" fill="#E7B798"/>
<path d="M451.336 419.845C459.075 417.498 435.8 447.865 423.527 442.38C415.343 435.945 412.824 432.08 410.734 423.848C409.304 411.212 418.364 408.872 418.364 408.872C424.972 409.535 443.598 422.192 451.336 419.845Z" fill="#E7B798"/>
<path d="M832.671 424.54H895.962V454.587C886.3 453.86 889.656 467.947 885.453 476.002C882.854 480.982 873.809 478.881 867.2 476.002C852.457 469.577 832.671 424.54 832.671 424.54Z" fill="#54565C"/>
<path d="M959.252 424.54H895.962V454.587C905.624 453.86 902.267 467.947 906.47 476.002C909.069 480.982 918.114 478.881 924.723 476.002C939.466 469.577 959.252 424.54 959.252 424.54Z" fill="#54565C"/>
<path d="M991.693 361.629C989.788 336.746 944.066 325.009 895.962 325.009V448.014C925.015 447.545 950.684 440.972 959.306 429.235C967.929 417.498 965.022 408.577 972.642 396.371C980.263 384.164 993.474 376.493 991.693 361.629Z" fill="#4E6093"/>
<path d="M800.23 361.629C802.135 336.746 847.858 325.009 895.962 325.009V448.014C866.909 447.545 841.239 440.972 832.617 429.235C823.995 417.498 826.902 408.577 819.281 396.371C811.661 384.164 798.449 376.493 800.23 361.629Z" fill="#4E6093"/>
<rect x="821" y="349.094" width="22.0558" height="32.8638" rx="10" fill="#E6B798"/>
<rect x="948.54" y="349.094" width="22.0558" height="32.8638" rx="10" fill="#E6B798"/>
<mask id="mask7_10_1204" style="mask-type:alpha" maskUnits="userSpaceOnUse" x="830" y="289" width="132" height="129">
<rect x="830.821" y="289" width="130.417" height="128.639" rx="49" fill="#FFCBA9"/>
</mask>
<g mask="url(#mask7_10_1204)">
<rect x="830.589" y="289" width="130.417" height="128.639" rx="49" fill="#FFCBA9"/>
<path d="M830.589 287.854C830.589 281.227 835.962 275.854 842.589 275.854H949.006C955.634 275.854 961.006 281.227 961.006 287.854V350.972C946.993 326.674 915.679 337.39 901.966 343.634C897.806 345.528 892.91 345.373 888.811 343.351C876.334 337.198 848.683 327.529 830.589 350.972V287.854Z" fill="#6A3D1E"/>
</g>
<rect x="920.003" y="360.362" width="22.0558" height="32.8638" rx="10" fill="white"/>
<rect x="920.962" y="368.812" width="13.4253" height="18.7793" rx="6.71263" fill="#535353"/>
<path d="M949.557 351.311C949.89 353.161 939.044 349.098 930.438 350.584C921.832 352.07 915.258 355.507 914.253 349.925C912.002 342.833 920.626 345.372 929.232 343.886C937.838 342.4 949.224 349.462 949.557 351.311Z" fill="#6A3D1E"/>
<rect x="850" y="360.362" width="22.0558" height="32.8638" rx="10" fill="white"/>
<rect x="857.671" y="366.934" width="13.4253" height="18.7793" rx="6.71263" fill="#535353"/>
<path d="M843.076 351.311C842.742 353.161 853.589 349.098 862.194 350.584C870.8 352.07 877.375 355.507 878.38 349.925C880.631 342.833 872.006 345.372 863.401 343.886C854.795 342.4 843.409 349.462 843.076 351.311Z" fill="#6A3D1E"/>
<mask id="mask8_10_1204" style="mask-type:alpha" maskUnits="userSpaceOnUse" x="873" y="379" width="46" height="34">
<ellipse cx="896.029" cy="396.042" rx="22.0558" ry="16.9014" fill="#2B2B2B"/>
</mask>
<g mask="url(#mask8_10_1204)">
<ellipse cx="896.029" cy="396.042" rx="22.0558" ry="16.9014" fill="#2B2B2B"/>
<path d="M873.973 375.385H918.085V387.592C900.505 382.016 890.852 382.093 873.973 387.592V375.385Z" fill="white"/>
<ellipse cx="896.029" cy="406.84" rx="14.3842" ry="6.10329" fill="#AC3939"/>
</g>
<path d="M800.23 361.629C800.23 361.629 822.633 379.865 822.633 401.841C828.37 414.465 834.041 434.869 843.151 433.93C852.261 432.991 856.577 442.38 856.577 442.38C856.577 442.38 838.836 455.995 808.768 432.701C786.394 415.366 800.23 361.629 800.23 361.629Z" fill="#E7B798"/>
<path d="M828.767 419.845C821.029 417.498 844.304 447.865 856.577 442.38C864.761 435.945 867.28 432.08 869.37 423.848C870.8 411.212 861.74 408.872 861.74 408.872C855.132 409.535 836.506 422.192 828.767 419.845Z" fill="#E7B798"/>
<path d="M991.625 361.629C991.625 361.629 969.471 379.865 969.471 401.841C963.734 414.465 958.062 434.869 948.952 433.93C939.842 432.991 935.527 442.38 935.527 442.38C935.527 442.38 953.267 455.995 983.335 432.701C1005.71 415.366 991.625 361.629 991.625 361.629Z" fill="#E7B798"/>
<path d="M963.336 419.845C971.075 417.498 947.8 447.865 935.527 442.38C927.343 435.945 924.824 432.08 922.734 423.848C921.304 411.212 930.364 408.872 930.364 408.872C936.972 409.535 955.598 422.192 963.336 419.845Z" fill="#E7B798"/>
<path d="M577 419.54H640.291V449.587C630.628 448.86 633.985 462.947 629.782 471.002C627.183 475.982 618.138 473.881 611.529 471.002C596.786 464.577 577 419.54 577 419.54Z" fill="#54565C"/>
<path d="M703.581 419.54H640.291V449.587C649.953 448.86 646.596 462.947 650.799 471.002C653.398 475.982 662.443 473.881 669.052 471.002C683.795 464.577 703.581 419.54 703.581 419.54Z" fill="#54565C"/>
<path d="M735.626 365.629C733.721 340.746 687.999 329.009 639.895 329.009V452.014C668.948 451.545 694.617 444.972 703.239 433.235C711.862 421.498 708.955 412.577 716.575 400.371C724.196 388.164 737.407 380.493 735.626 365.629Z" fill="#4E6093"/>
<path d="M544.163 365.629C546.068 340.746 591.791 329.009 639.895 329.009V452.014C610.842 451.545 585.172 444.972 576.55 433.235C567.928 421.498 570.835 412.577 563.214 400.371C555.594 388.164 542.382 380.493 544.163 365.629Z" fill="#4E6093"/>
<rect x="565" y="354.094" width="22.0558" height="32.8638" rx="10" fill="#E6B798"/>
<rect x="692.54" y="354.094" width="22.0558" height="32.8638" rx="10" fill="#E6B798"/>
<mask id="mask9_10_1204" style="mask-type:alpha" maskUnits="userSpaceOnUse" x="574" y="294" width="132" height="129">
<rect x="574.821" y="294" width="130.417" height="128.639" rx="49" fill="#FFCBA9"/>
</mask>
<g mask="url(#mask9_10_1204)">
<rect x="574.589" y="294" width="130.417" height="128.639" rx="49" fill="#FFCBA9"/>
<path d="M574.589 292.854C574.589 286.227 579.962 280.854 586.589 280.854H693.006C699.634 280.854 705.006 286.227 705.006 292.854V355.972C690.993 331.674 659.679 342.39 645.966 348.634C641.806 350.528 636.91 350.373 632.811 348.351C620.334 342.198 592.683 332.529 574.589 355.972V292.854Z" fill="#6A3D1E"/>
</g>
<rect x="664.003" y="365.362" width="22.0558" height="32.8638" rx="10" fill="white"/>
<rect x="664.962" y="373.812" width="13.4253" height="18.7793" rx="6.71263" fill="#535353"/>
<path d="M693.557 356.311C693.89 358.161 683.044 354.098 674.438 355.584C665.832 357.07 659.258 360.507 658.253 354.925C656.002 347.833 664.626 350.372 673.232 348.886C681.838 347.4 693.224 354.462 693.557 356.311Z" fill="#6A3D1E"/>
<rect x="594" y="365.362" width="22.0558" height="32.8638" rx="10" fill="white"/>
<rect x="601.671" y="371.934" width="13.4253" height="18.7793" rx="6.71263" fill="#535353"/>
<path d="M587.076 356.311C586.742 358.161 597.589 354.098 606.194 355.584C614.8 357.07 621.375 360.507 622.38 354.925C624.631 347.833 616.006 350.372 607.401 348.886C598.795 347.4 587.409 354.462 587.076 356.311Z" fill="#6A3D1E"/>
<mask id="mask10_10_1204" style="mask-type:alpha" maskUnits="userSpaceOnUse" x="617" y="384" width="46" height="34">
<ellipse cx="640.029" cy="401.042" rx="22.0558" ry="16.9014" fill="#2B2B2B"/>
</mask>
<g mask="url(#mask10_10_1204)">
<ellipse cx="640.029" cy="401.042" rx="22.0558" ry="16.9014" fill="#2B2B2B"/>
<path d="M617.973 380.385H662.085V392.592C644.505 387.016 634.852 387.093 617.973 392.592V380.385Z" fill="white"/>
<ellipse cx="640.029" cy="411.84" rx="14.3842" ry="6.10329" fill="#AC3939"/>
</g>
<path d="M544.23 361.629C544.23 361.629 566.633 379.865 566.633 401.841C572.37 414.465 578.041 434.869 587.151 433.93C596.261 432.991 600.577 442.38 600.577 442.38C600.577 442.38 582.836 455.995 552.768 432.701C530.394 415.366 544.23 361.629 544.23 361.629Z" fill="#E7B798"/>
<path d="M572.767 419.845C565.029 417.498 588.304 447.865 600.577 442.38C608.761 435.945 611.28 432.08 613.37 423.848C614.8 411.212 605.74 408.872 605.74 408.872C599.132 409.535 580.506 422.192 572.767 419.845Z" fill="#E7B798"/>
<path d="M735.625 361.629C735.625 361.629 713.471 379.865 713.471 401.841C707.734 414.465 702.062 434.869 692.952 433.93C683.842 432.991 679.527 442.38 679.527 442.38C679.527 442.38 697.267 455.995 727.335 432.701C749.71 415.366 735.625 361.629 735.625 361.629Z" fill="#E7B798"/>
<path d="M707.336 419.845C715.075 417.498 691.8 447.865 679.527 442.38C671.343 435.945 668.824 432.08 666.734 423.848C665.304 411.212 674.364 408.872 674.364 408.872C680.972 409.535 699.598 422.192 707.336 419.845Z" fill="#E7B798"/>
<path d="M574.809 173.54H640V203.587C630.048 202.86 633.505 216.947 629.176 225.002C626.499 229.982 617.183 227.881 610.375 225.002C595.189 218.577 574.809 173.54 574.809 173.54Z" fill="#54565C"/>
<path d="M705.191 173.54H640V203.587C649.952 202.86 646.495 216.947 650.824 225.002C653.501 229.982 662.817 227.881 669.625 225.002C684.811 218.577 705.191 173.54 705.191 173.54Z" fill="#54565C"/>
<path d="M738.606 118.629C736.644 93.7465 689.548 82.0094 640 82.0094V205.014C669.925 204.545 696.366 197.972 705.247 186.235C714.128 174.498 711.134 165.577 718.983 153.371C726.832 141.164 740.44 133.493 738.606 118.629Z" fill="#4E6093"/>
<path d="M541.394 118.629C543.357 93.7465 590.452 82.0094 640 82.0094V205.014C610.075 204.545 583.635 197.972 574.753 186.235C565.872 174.498 568.867 165.577 561.017 153.371C553.168 141.164 539.56 133.493 541.394 118.629Z" fill="#4E6093"/>
<path d="M541.226 120.507C541.226 120.507 564.301 138.743 564.301 160.719C570.21 173.343 573.657 187.838 585.476 197.19C597.294 206.541 600.25 219.561 591.385 227.114C582.52 234.668 561.028 209.428 550.021 191.579C535.158 167.478 541.226 120.507 541.226 120.507Z" fill="#FFCBA9"/>
<path d="M738.774 120.507C738.774 120.507 715.699 138.743 715.699 160.719C709.79 173.343 706.343 187.838 694.524 197.19C682.706 206.541 679.75 219.561 688.615 227.114C697.48 234.668 718.972 209.428 729.979 191.579C744.842 167.478 738.774 120.507 738.774 120.507Z" fill="#FFCBA9"/>
<rect x="562.718" y="96.0939" width="22.718" height="32.8638" rx="10" fill="#E6B798"/>
<rect x="694.087" y="96.0939" width="22.718" height="32.8638" rx="10" fill="#E6B798"/>
<mask id="mask11_10_1204" style="mask-type:alpha" maskUnits="userSpaceOnUse" x="571" y="36" width="135" height="129">
<rect x="571.608" y="36" width="134.333" height="128.639" rx="49" fill="#FFCBA9"/>
</mask>
<g mask="url(#mask11_10_1204)">
<rect x="571.37" y="36" width="134.333" height="128.639" rx="49" fill="#FFCBA9"/>
<path d="M571.37 34.8545C571.37 28.227 576.742 22.8545 583.37 22.8545H693.702C700.33 22.8545 705.702 28.227 705.702 34.8545V97.9718C691.146 73.4676 658.466 84.5743 644.534 90.792C640.464 92.6083 635.708 92.4674 631.697 90.5238C619.024 84.3822 590.181 74.3089 571.37 97.9718V34.8545Z" fill="#6A3D1E"/>
</g>
<rect x="596.301" y="116.751" width="24.6935" height="23.4742" rx="10" fill="white"/>
<rect x="602.228" y="119.568" width="13.8284" height="18.7793" rx="6.91418" fill="#535353"/>
<rect x="657.541" y="117.69" width="24.6935" height="23.4742" rx="10" fill="white"/>
<rect x="663.467" y="120.507" width="13.8284" height="18.7793" rx="6.91418" fill="#535353"/>
<path d="M689.229 115.287C689.229 116.843 678.969 112.001 669.968 112.001C660.967 112.001 653.67 113.879 653.67 109.184C652.683 103.081 660.967 106.367 669.968 106.367C678.969 106.367 689.229 113.732 689.229 115.287Z" fill="#6A3D1E"/>
<path d="M590.375 114.348C590.375 115.904 600.635 111.062 609.636 111.062C618.637 111.062 625.933 112.94 625.933 108.245C626.921 102.142 618.637 105.428 609.636 105.428C600.635 105.428 590.375 112.793 590.375 114.348Z" fill="#6A3D1E"/>
<path d="M649.639 152.122C649.639 153.849 645.217 155.249 639.762 155.249C634.307 155.249 629.884 153.849 629.884 152.122C629.884 150.395 634.307 150.558 639.762 150.558C645.217 150.558 649.639 150.395 649.639 152.122Z" fill="#535353"/>
</svg>
